<?xml version="1.0" encoding="utf-8"?>
<!-- Generator: Adobe Illustrator 16.0.0, SVG Export Plug-In . SVG Version: 6.00 Build 0)  -->
<!DOCTYPE svg PUBLIC "-//W3C//DTD SVG 1.1//EN" "http://www.w3.org/Graphics/SVG/1.1/DTD/svg11.dtd">
<svg version="1.1" xmlns="http://www.w3.org/2000/svg" xmlns:xlink="http://www.w3.org/1999/xlink" x="0px" y="0px"
	 width="261.856px" height="170.651px" viewBox="0 0 261.856 170.651" enable-background="new 0 0 261.856 170.651"
	 xml:space="preserve">
<g id="Layer_1">
	<g>
		<path fill="#FFFFFF" d="M46.677,91.276h0.145c5.112-14.618,16.489-30.963,17.426-33.555c0.647-1.728,1.08-2.88,2.16-2.88
			c0.863,0,1.943,0.432,1.943,1.944c0,0.576-0.216,1.224-0.647,1.872C48.766,87.892,48.262,94.66,48.262,97.612
			c0,2.593-0.288,3.168-2.521,3.168c-1.152,0-1.872-0.863-1.872-1.512c0-0.863,0.216-2.16,0.216-3.023
			c0-10.369-10.153-32.115-10.153-40.54c0-1.368,1.296-1.512,2.016-1.512c0.648,0,1.656,0.36,1.656,3.528
			C37.604,62.906,44.445,78.531,46.677,91.276z"/>
		<path fill="#FFFFFF" d="M77.637,75.867l18.146-2.304c0.792-0.504,1.439-0.648,2.16-0.648c1.224,0,2.232,1.008,2.232,2.016
			c0,1.656-0.864,2.448-2.665,2.448c-0.288,0-1.008-0.36-1.296-0.432l-18.577,2.16v18.218l23.834-1.945
			c0.216-0.144,1.08-0.576,1.8-0.576c0.937,0,1.8,1.369,1.8,2.232c0,1.584-0.936,1.873-3.384,1.873
			c-2.305,0-16.489,1.224-23.906,1.728c-0.288,0.36-1.44,0.792-2.16,0.792c-1.08,0-2.16-0.287-2.16-1.8
			c0-0.792,0.288-1.224,0.864-1.872V79.755c-0.648,0-1.08-0.576-1.08-1.584c0-1.296,0.432-2.016,1.08-2.304V60.529
			c-0.937,0-1.729-0.432-1.729-1.656c0-1.152,0.504-1.8,1.08-2.232c-0.144-0.216-0.359-0.792-0.359-1.008
			c0-0.936,0.432-1.584,2.304-1.584c2.088,0,2.376,0.864,2.376,2.592l20.811-1.512c0.72-0.576,1.872-0.936,2.16-0.936
			c2.231,0,2.664,1.368,2.664,2.52c0,2.017-1.296,2.592-2.952,2.592c-1.009,0-1.44-0.144-2.089-0.792l-20.953,1.44V75.867z"/>
		<path fill="#FFFFFF" d="M132.357,53.041c6.192,0,12.673,3.672,12.673,6.192c0,1.944-1.656,2.304-2.089,2.304
			c-0.72,0-1.296-0.504-1.584-1.584c-0.647-2.52-6.048-3.672-9-3.672c-13.321,0-17.642,19.802-17.642,26.138
			c0,1.369,0.144,15.842,11.232,15.842c4.32,0,11.233-4.465,13.825-7.921c0.288-2.017,0.721-3.024,2.305-3.024
			c0.504,0,2.231,0.288,2.231,2.017c0,1.224-0.647,1.944-2.448,3.601c-2.808,2.664-8.856,8.568-15.985,8.568
			c-11.017,0-14.473-11.018-14.473-19.514C111.403,76.227,116.012,53.041,132.357,53.041z"/>
		<path fill="#FFFFFF" d="M165.619,97.973c0.216,0.144,0.432,0.576,0.432,1.152c0,0.72-0.936,1.512-2.592,1.512
			c-0.864,0-1.44-0.216-1.44-1.44c0-0.576,0.072-1.295,0.288-1.512V59.233l-10.44,1.944c-0.36,0.288-1.009,0.504-1.368,0.504
			c-1.225,0-1.872-1.08-1.872-1.944c0-1.152,0.071-2.376,1.728-2.376c0.648,0,0.937,0.072,1.513,0.36l10.368-1.584
			c0.505-0.864,2.448-1.08,3.169-0.72l13.104-2.736c0.433-0.216,1.225-0.288,1.656-0.288c0.792,0,1.513,0.864,1.513,2.16
			c0,1.224-0.721,1.873-2.089,1.873c-0.792,0-1.08-0.072-1.655-0.288l-12.313,2.448V97.973z"/>
		<path fill="#FFFFFF" d="M207.738,95.597c-4.032,4.32-8.856,5.977-14.041,5.977c-13.681,0-14.257-16.705-14.257-18.865
			c0-14.402,10.297-30.963,21.962-30.963c7.704,0,14.905,6.048,14.905,22.322C216.308,86.235,211.771,91.349,207.738,95.597z
			 M182.753,82.491c0,7.561,3.168,15.842,11.593,15.842c2.448,0,7.057-0.504,11.665-5.761c4.464-5.112,6.984-9.793,6.984-18.578
			c0-12.745-4.896-19.01-11.521-19.01C192.545,54.985,182.753,69.602,182.753,82.491z"/>
		<path fill="#FFFFFF" d="M225.593,57.145c-0.216-0.504-0.36-1.152-0.36-1.728c0-0.936,1.08-1.584,2.16-1.584
			s2.017,0.576,2.017,1.584c0,0.36-0.288,1.008-0.504,1.512v1.944c6.624-3.528,13.033-4.896,17.785-4.896
			c4.681,0,8.425,1.944,8.425,6.336c0,5.833-3.24,7.993-8.713,11.161c-2.376,1.368-10.801,4.32-15.553,4.752l26.065,21.026
			c0.288,0,0.721-0.217,1.009-0.217c0.936,0,1.656,1.008,1.656,1.729c0,1.944-1.656,2.377-2.593,2.377
			c-0.648,0-1.729-0.433-2.16-1.441l-25.922-21.025V97.54c0.216,0.289,0.504,0.793,0.504,1.441c0,1.08-1.08,1.655-2.448,1.655
			s-2.088-0.647-2.088-1.584s0.504-1.224,0.72-1.656V64.13c-0.145,0.144-0.504,0.36-0.72,0.36c-1.225,0-1.656-0.936-1.656-1.8
			c0-1.08,0.792-1.8,2.376-2.448V57.145z M228.905,73.347c2.808,0,22.97-4.249,22.97-12.673c0-2.736-2.664-3.456-5.185-3.456
			c-1.584,0-8.929,0.072-17.785,5.472V73.347z"/>
	</g>
	<g>
		<path fill="#FFFFFF" d="M42.382,117.21c-1.901,1.621-3.501,2.341-5.642,2.341c-3.061,0-3.241-2.461-3.241-2.641
			c0-0.48,0.34-0.72,0.58-0.72c0.84,0,0.14,2.46,2.641,2.46c2.201,0,3.821-1,5.101-2.241c0.5-0.479,1.16-1.18,1.16-2.619
			c0-1.301-0.72-1.701-1.84-1.701c-0.94,0-1.94,0.28-2.9,0.6c-0.96,0.32-1.88,0.621-2.661,0.621c-0.8,0-2.121-0.221-2.121-1.98
			c0-2.201,2.561-5.041,6.001-5.041c1.5,0,2.94,0.9,2.94,1.5c0,0.18,0,0.48-0.4,0.48c-0.52,0-0.66-0.221-0.66-0.44
			c-0.42-0.3-0.78-0.64-1.92-0.64c-3.381,0-5.041,2.82-5.041,3.961c0,1,0.38,1.26,1.4,1.26c0.44,0,1.24-0.301,2.2-0.62
			c0.94-0.32,2.041-0.601,3.001-0.601c1.561,0,2.921,0.58,2.921,2.32C43.903,115.05,43.442,116.31,42.382,117.21z"/>
		<path fill="#FFFFFF" d="M53.862,107.088c-0.08-0.06-0.18-0.22-0.18-0.3c0-0.32,0.239-0.521,0.7-0.521
			c0.46,0,0.479,0.32,0.479,0.48c0,0.079,0,0.18-0.08,0.22v9.282c0,0.601-0.8,1.521-1.36,1.96c-1.28,1.061-2.22,1.381-4.021,1.381
			c-1.9,0-2.721-1.4-2.721-2.441v-10.062c-0.12-0.24-0.04-0.64,0.46-0.64c0.261,0,0.46,0.26,0.46,0.56v10.322
			c0.301,0.979,0.881,1.36,1.721,1.36c3.021,0,4.541-2.24,4.541-2.721V107.088z"/>
		<path fill="#FFFFFF" d="M58.26,107.269c-0.06-0.141-0.1-0.32-0.1-0.48c0-0.26,0.3-0.44,0.6-0.44c0.301,0,0.561,0.16,0.561,0.44
			c0,0.1-0.08,0.279-0.141,0.42v0.54c1.841-0.98,3.621-1.36,4.941-1.36c1.301,0,2.341,0.54,2.341,1.76
			c0,1.621-0.9,2.221-2.421,3.102c-0.66,0.38-3.001,1.2-4.32,1.32l7.241,5.841c0.08,0,0.2-0.06,0.28-0.06
			c0.26,0,0.46,0.279,0.46,0.48c0,0.539-0.46,0.66-0.721,0.66c-0.18,0-0.479-0.121-0.6-0.4l-7.202-5.842v5.241
			c0.061,0.08,0.141,0.22,0.141,0.4c0,0.3-0.3,0.46-0.681,0.46c-0.38,0-0.58-0.18-0.58-0.439c0-0.261,0.141-0.341,0.2-0.461v-9.242
			c-0.04,0.041-0.14,0.101-0.2,0.101c-0.34,0-0.46-0.261-0.46-0.501c0-0.299,0.22-0.5,0.66-0.68V107.269z M59.18,111.769
			c0.78,0,6.382-1.18,6.382-3.521c0-0.761-0.74-0.96-1.44-0.96c-0.44,0-2.48,0.02-4.941,1.52V111.769z"/>
		<path fill="#FFFFFF" d="M71.421,116.75h0.04c1.42-4.062,4.581-8.603,4.841-9.322c0.18-0.479,0.3-0.8,0.601-0.8
			c0.239,0,0.54,0.12,0.54,0.54c0,0.16-0.061,0.34-0.181,0.521c-5.261,8.121-5.4,10.002-5.4,10.822c0,0.72-0.08,0.88-0.7,0.88
			c-0.32,0-0.521-0.24-0.521-0.421c0-0.239,0.06-0.6,0.06-0.84c0-2.881-2.82-8.922-2.82-11.262c0-0.381,0.36-0.42,0.561-0.42
			c0.18,0,0.46,0.1,0.46,0.979C68.901,108.868,70.801,113.209,71.421,116.75z"/>
		<path fill="#FFFFFF" d="M80.02,112.47l5.041-0.641c0.221-0.141,0.4-0.18,0.601-0.18c0.34,0,0.62,0.279,0.62,0.56
			c0,0.46-0.24,0.681-0.74,0.681c-0.08,0-0.28-0.101-0.36-0.121l-5.161,0.601v5.062l6.622-0.541c0.06-0.039,0.3-0.16,0.5-0.16
			c0.26,0,0.5,0.381,0.5,0.621c0,0.439-0.26,0.52-0.94,0.52c-0.64,0-4.581,0.34-6.642,0.48c-0.08,0.1-0.399,0.22-0.6,0.22
			c-0.3,0-0.601-0.079-0.601-0.5c0-0.22,0.08-0.34,0.24-0.521v-5c-0.18,0-0.3-0.16-0.3-0.44c0-0.36,0.12-0.561,0.3-0.64v-4.262
			c-0.26,0-0.479-0.12-0.479-0.46c0-0.32,0.14-0.5,0.3-0.62c-0.04-0.061-0.101-0.221-0.101-0.28c0-0.26,0.12-0.44,0.641-0.44
			c0.58,0,0.66,0.24,0.66,0.721l5.781-0.42c0.2-0.16,0.52-0.26,0.6-0.26c0.62,0,0.74,0.379,0.74,0.699
			c0,0.561-0.359,0.721-0.82,0.721c-0.279,0-0.399-0.04-0.58-0.221l-5.821,0.4V112.47z"/>
		<path fill="#FFFFFF" d="M93.701,112.369l-4.74-5.382c-0.301-0.119-0.4-0.399-0.4-0.64c0-0.28,0.38-0.42,0.561-0.42
			c0.18,0,0.5,0.101,0.5,0.44l4.581,5.181l4.641-5.001c0-0.381,0.3-0.42,0.561-0.42c0.119,0,0.56,0.119,0.56,0.46
			c0,0.14-0.12,0.399-0.28,0.44l-5.061,5.361v6.08c0.06,0.061,0.18,0.201,0.18,0.341c0,0.3-0.24,0.54-0.72,0.54
			c-0.381,0-0.521-0.16-0.521-0.58c0-0.16,0.04-0.34,0.14-0.44V112.369z"/>
		<path fill="#FFFFFF" d="M102.42,118.53c0.16,0.1,0.221,0.301,0.221,0.439c0,0.32-0.48,0.381-0.721,0.381
			c-0.26,0-0.68-0.04-0.68-0.52c0-0.121,0.1-0.261,0.26-0.381v-11.242c-0.08-0.08-0.18-0.221-0.18-0.32c0-0.48,0.56-0.54,0.9-0.54
			c0.38,0,0.5,0.181,0.5,0.46c0,0.24-0.16,0.32-0.301,0.541V118.53z"/>
		<path fill="#FFFFFF" d="M114.661,118.55c0.102,0.141,0.201,0.24,0.201,0.44c0,0.3-0.301,0.36-0.721,0.36
			c-0.48,0-0.5-0.061-0.699-0.641c-0.762-2.24-4.902-5.841-6.583-9.922h-0.04v9.742c0.08,0.08,0.16,0.26,0.16,0.439
			c0,0.361-0.06,0.381-0.52,0.381c-0.301,0-0.761-0.04-0.761-0.5c0-0.1,0.101-0.221,0.2-0.34v-11.283c-0.04-0.08-0.1-0.26-0.1-0.359
			c0-0.26,0.16-0.521,0.52-0.521c0.301,0,0.7,0.06,0.7,0.4c0,0.38,0.28,0.92,0.9,2.24c1.48,3.12,5.542,7.321,5.782,8.422h0.039
			v-10.503c-0.02-0.06-0.139-0.199-0.139-0.34c0-0.32,0.299-0.439,0.52-0.439c0.279,0,0.66,0.18,0.66,0.38
			c0,0.181-0.041,0.36-0.121,0.46V118.55z"/>
		<path fill="#FFFFFF" d="M121.802,118.71c2.619,0,3.66-0.74,4.76-1.84c1.4-1.4,2.381-3.101,2.381-4.461
			c-0.42,0.12-3.84,1.02-4.48,1.02c-0.48,0-0.74-0.02-0.74-0.439s0.301-0.5,0.58-0.5c1.061,0,4.5-1.041,5.061-1.041
			c0.361,0,0.5,0.24,0.5,0.66c0,1.941-2.061,7.502-8.021,7.502c-3.121,0-4.602-2.36-4.602-5.281c0-1.3,0.102-3.28,2.322-5.461
			c2.42-2.381,4.82-2.92,5.9-2.92c1.359,0,1.92,0.14,2.561,0.439c0.42,0.2,1.02,0.961,1.02,1.221c0,0.3-0.1,0.64-0.42,0.64
			c-0.459,0-0.561-0.22-0.58-0.479c-0.061-0.4-0.359-0.921-2.779-0.921c-2.082,0-7.102,2.821-7.102,7.502
			C118.161,116.21,119.101,118.71,121.802,118.71z"/>
		<path fill="#FFFFFF" d="M145.661,117.21c-1.9,1.621-3.5,2.341-5.641,2.341c-3.061,0-3.24-2.461-3.24-2.641
			c0-0.48,0.34-0.72,0.58-0.72c0.84,0,0.141,2.46,2.641,2.46c2.199,0,3.82-1,5.102-2.241c0.5-0.479,1.16-1.18,1.16-2.619
			c0-1.301-0.721-1.701-1.842-1.701c-0.939,0-1.939,0.28-2.9,0.6c-0.959,0.32-1.881,0.621-2.66,0.621
			c-0.801,0-2.121-0.221-2.121-1.98c0-2.201,2.561-5.041,6.002-5.041c1.5,0,2.941,0.9,2.941,1.5c0,0.18,0,0.48-0.4,0.48
			c-0.521,0-0.66-0.221-0.66-0.44c-0.42-0.3-0.781-0.64-1.92-0.64c-3.381,0-5.043,2.82-5.043,3.961c0,1,0.381,1.26,1.4,1.26
			c0.441,0,1.24-0.301,2.201-0.62c0.939-0.32,2.041-0.601,3-0.601c1.561,0,2.922,0.58,2.922,2.32
			C147.183,115.05,146.722,116.31,145.661,117.21z"/>
		<path fill="#FFFFFF" d="M150.88,112.47l5.041-0.641c0.221-0.141,0.4-0.18,0.6-0.18c0.34,0,0.621,0.279,0.621,0.56
			c0,0.46-0.24,0.681-0.74,0.681c-0.08,0-0.281-0.101-0.361-0.121l-5.16,0.601v5.062l6.621-0.541c0.061-0.039,0.301-0.16,0.5-0.16
			c0.26,0,0.5,0.381,0.5,0.621c0,0.439-0.26,0.52-0.939,0.52c-0.641,0-4.582,0.34-6.643,0.48c-0.08,0.1-0.398,0.22-0.6,0.22
			c-0.299,0-0.6-0.079-0.6-0.5c0-0.22,0.08-0.34,0.24-0.521v-5c-0.18,0-0.301-0.16-0.301-0.44c0-0.36,0.121-0.561,0.301-0.64v-4.262
			c-0.26,0-0.48-0.12-0.48-0.46c0-0.32,0.141-0.5,0.301-0.62c-0.041-0.061-0.102-0.221-0.102-0.28c0-0.26,0.121-0.44,0.641-0.44
			c0.58,0,0.66,0.24,0.66,0.721l5.781-0.42c0.201-0.16,0.52-0.26,0.6-0.26c0.621,0,0.74,0.379,0.74,0.699
			c0,0.561-0.359,0.721-0.82,0.721c-0.279,0-0.398-0.04-0.58-0.221l-5.82,0.4V112.47z"/>
		<path fill="#FFFFFF" d="M161.159,107.269c-0.059-0.141-0.1-0.32-0.1-0.48c0-0.26,0.301-0.44,0.6-0.44
			c0.301,0,0.561,0.16,0.561,0.44c0,0.1-0.08,0.279-0.141,0.42v0.54c1.842-0.98,3.621-1.36,4.941-1.36
			c1.301,0,2.342,0.54,2.342,1.76c0,1.621-0.9,2.221-2.422,3.102c-0.66,0.38-3,1.2-4.32,1.32l7.242,5.841
			c0.08,0,0.199-0.06,0.279-0.06c0.26,0,0.461,0.279,0.461,0.48c0,0.539-0.461,0.66-0.721,0.66c-0.18,0-0.48-0.121-0.6-0.4
			l-7.203-5.842v5.241c0.061,0.08,0.141,0.22,0.141,0.4c0,0.3-0.299,0.46-0.68,0.46s-0.58-0.18-0.58-0.439
			c0-0.261,0.141-0.341,0.199-0.461v-9.242c-0.039,0.041-0.139,0.101-0.199,0.101c-0.34,0-0.461-0.261-0.461-0.501
			c0-0.299,0.221-0.5,0.66-0.68V107.269z M162.079,111.769c0.781,0,6.383-1.18,6.383-3.521c0-0.761-0.74-0.96-1.441-0.96
			c-0.439,0-2.48,0.02-4.941,1.52V111.769z"/>
		<path fill="#FFFFFF" d="M174.319,116.75h0.041c1.42-4.062,4.58-8.603,4.84-9.322c0.18-0.479,0.301-0.8,0.602-0.8
			c0.238,0,0.539,0.12,0.539,0.54c0,0.16-0.061,0.34-0.18,0.521c-5.262,8.121-5.4,10.002-5.4,10.822c0,0.72-0.08,0.88-0.701,0.88
			c-0.32,0-0.52-0.24-0.52-0.421c0-0.239,0.059-0.6,0.059-0.84c0-2.881-2.82-8.922-2.82-11.262c0-0.381,0.361-0.42,0.561-0.42
			c0.18,0,0.461,0.1,0.461,0.979C171.8,108.868,173.7,113.209,174.319,116.75z"/>
		<path fill="#FFFFFF" d="M182.919,118.53c0.16,0.1,0.221,0.301,0.221,0.439c0,0.32-0.48,0.381-0.721,0.381
			c-0.26,0-0.68-0.04-0.68-0.52c0-0.121,0.1-0.261,0.26-0.381v-11.242c-0.08-0.08-0.18-0.221-0.18-0.32c0-0.48,0.561-0.54,0.9-0.54
			c0.381,0,0.5,0.181,0.5,0.46c0,0.24-0.16,0.32-0.301,0.541V118.53z"/>
		<path fill="#FFFFFF" d="M191.319,106.128c1.721,0,3.521,1.02,3.521,1.721c0,0.539-0.461,0.64-0.58,0.64
			c-0.199,0-0.359-0.14-0.439-0.44c-0.182-0.699-1.682-1.02-2.502-1.02c-3.699,0-4.9,5.501-4.9,7.262c0,0.379,0.041,4.4,3.121,4.4
			c1.199,0,3.121-1.24,3.84-2.201c0.08-0.56,0.201-0.84,0.641-0.84c0.141,0,0.621,0.08,0.621,0.561c0,0.34-0.182,0.54-0.682,1
			c-0.779,0.74-2.459,2.381-4.439,2.381c-3.061,0-4.021-3.061-4.021-5.422C185.499,112.569,186.778,106.128,191.319,106.128z"/>
		<path fill="#FFFFFF" d="M198.099,112.47l5.041-0.641c0.221-0.141,0.4-0.18,0.6-0.18c0.34,0,0.621,0.279,0.621,0.56
			c0,0.46-0.24,0.681-0.74,0.681c-0.08,0-0.281-0.101-0.361-0.121l-5.16,0.601v5.062l6.621-0.541c0.061-0.039,0.301-0.16,0.5-0.16
			c0.26,0,0.5,0.381,0.5,0.621c0,0.439-0.26,0.52-0.939,0.52c-0.641,0-4.582,0.34-6.643,0.48c-0.08,0.1-0.398,0.22-0.6,0.22
			c-0.299,0-0.6-0.079-0.6-0.5c0-0.22,0.08-0.34,0.24-0.521v-5c-0.18,0-0.301-0.16-0.301-0.44c0-0.36,0.121-0.561,0.301-0.64v-4.262
			c-0.26,0-0.48-0.12-0.48-0.46c0-0.32,0.141-0.5,0.301-0.62c-0.041-0.061-0.102-0.221-0.102-0.28c0-0.26,0.121-0.44,0.641-0.44
			c0.58,0,0.66,0.24,0.66,0.721l5.781-0.42c0.201-0.16,0.52-0.26,0.6-0.26c0.621,0,0.74,0.379,0.74,0.699
			c0,0.561-0.359,0.721-0.82,0.721c-0.279,0-0.398-0.04-0.58-0.221l-5.82,0.4V112.47z"/>
		<path fill="#FFFFFF" d="M216.601,117.21c-1.9,1.621-3.502,2.341-5.641,2.341c-3.061,0-3.242-2.461-3.242-2.641
			c0-0.48,0.34-0.72,0.58-0.72c0.842,0,0.141,2.46,2.641,2.46c2.201,0,3.822-1,5.102-2.241c0.5-0.479,1.16-1.18,1.16-2.619
			c0-1.301-0.721-1.701-1.84-1.701c-0.941,0-1.941,0.28-2.9,0.6c-0.961,0.32-1.881,0.621-2.66,0.621
			c-0.801,0-2.121-0.221-2.121-1.98c0-2.201,2.561-5.041,6.002-5.041c1.5,0,2.939,0.9,2.939,1.5c0,0.18,0,0.48-0.4,0.48
			c-0.52,0-0.66-0.221-0.66-0.44c-0.42-0.3-0.779-0.64-1.92-0.64c-3.381,0-5.041,2.82-5.041,3.961c0,1,0.381,1.26,1.4,1.26
			c0.439,0,1.24-0.301,2.201-0.62c0.939-0.32,2.039-0.601,3-0.601c1.561,0,2.92,0.58,2.92,2.32
			C218.12,115.05,217.661,116.31,216.601,117.21z"/>
		<path fill="#FFFFFF" d="M222.319,119.03c0,1.4-1.262,2.381-2.102,2.381c-0.42,0-0.539-0.12-0.539-0.4
			c0-0.66,1.779-0.1,1.779-1.801c-0.18,0.121-0.279,0.141-0.42,0.141c-0.6,0-0.859-0.301-0.859-0.801c0-0.619,0.279-1.24,0.979-1.24
			C221.737,117.31,222.319,117.61,222.319,119.03z"/>
		<path fill="#FFFFFF" d="M235.86,117.91c0.08-0.12,0.379-0.22,0.5-0.22c0.318,0.02,0.5,0.26,0.5,0.52c0,0.4-0.141,0.621-0.381,0.66
			c-0.141-0.02-0.26-0.039-0.34-0.06l-5.182,0.66c-0.139,0.06-0.439,0.08-0.561,0.08c-0.359,0-0.559-0.2-0.559-0.44
			c0-0.18,0-0.4,0.219-0.5v-11.282c0-0.08-0.1-0.28-0.1-0.421c0-0.299,0.16-0.56,0.6-0.56c0.521,0,0.58,0.261,0.58,0.56
			c0,0.101-0.139,0.261-0.16,0.341v11.322L235.86,117.91z"/>
		<path fill="#FFFFFF" d="M245.159,117.91c0.08-0.12,0.381-0.22,0.5-0.22c0.32,0.02,0.5,0.26,0.5,0.52c0,0.4-0.141,0.621-0.379,0.66
			c-0.141-0.02-0.262-0.039-0.342-0.06l-5.18,0.66c-0.141,0.06-0.441,0.08-0.561,0.08c-0.359,0-0.561-0.2-0.561-0.44
			c0-0.18,0-0.4,0.221-0.5v-11.282c0-0.08-0.1-0.28-0.1-0.421c0-0.299,0.16-0.56,0.6-0.56c0.52,0,0.58,0.261,0.58,0.56
			c0,0.101-0.141,0.261-0.16,0.341v11.322L245.159,117.91z"/>
		<path fill="#FFFFFF" d="M253.579,106.128c1.721,0,3.521,1.02,3.521,1.721c0,0.539-0.461,0.64-0.58,0.64
			c-0.201,0-0.361-0.14-0.441-0.44c-0.18-0.699-1.68-1.02-2.5-1.02c-3.701,0-4.9,5.501-4.9,7.262c0,0.379,0.039,4.4,3.119,4.4
			c1.201,0,3.121-1.24,3.842-2.201c0.08-0.56,0.199-0.84,0.641-0.84c0.139,0,0.619,0.08,0.619,0.561c0,0.34-0.18,0.54-0.68,1
			c-0.781,0.74-2.461,2.381-4.441,2.381c-3.061,0-4.021-3.061-4.021-5.422C247.757,112.569,249.038,106.128,253.579,106.128z"/>
		<path fill="#FFFFFF" d="M258.897,118.251c0-0.581,0.439-1.281,1.039-1.281c0.621,0,0.721,0.601,0.721,1.121
			c0,0.619-0.279,1.26-1.039,1.26C259.276,119.351,258.897,118.97,258.897,118.251z"/>
	</g>
	<g>
		<path fill="#FFFFFF" d="M0.354,8.621v21.938c0.47-0.048,0.977-0.007,1.512,0.117c0.119,0.004,0.237,0.01,0.354,0.024
			c1.07-0.259,2.284-0.185,3.558,0.396c3.464,1.579,7.473-0.237,10.939,0.604c0.325-0.009,0.652,0.006,0.976,0.059
			c0.104,0.004,0.208,0.01,0.31,0.021c0.07-0.004,0.139,0.003,0.208,0.002V8.621H0.354z"/>
	</g>
	<g>
		<path fill="#FFFFFF" d="M17.589,44.579c-5.676-0.044-11.523,0.249-17.234-0.248v107.518h17.857V44.542
			C18.008,44.567,17.8,44.58,17.589,44.579z"/>
	</g>
	<g>
		<polygon fill="#FFFFFF" points="18.153,151.849 9.275,170.651 0.399,151.849 		"/>
	</g>
	<g>
		<path fill="none" stroke="#010101" stroke-miterlimit="10" d="M113.117,28.988"/>
	</g>
	<g>
		<path fill="none" stroke="#010101" stroke-miterlimit="10" d="M105.124,20.424"/>
	</g>
	<g>
		<path fill="none" stroke="#010101" stroke-miterlimit="10" d="M100.271,9.576"/>
	</g>
	<g>
		<path fill="none" stroke="#010101" stroke-miterlimit="10" d="M105.272,12"/>
	</g>
	<g>
		<path fill="none" stroke="#010101" stroke-miterlimit="10" d="M100.738,0"/>
	</g>
	<g>
		<path fill="none" stroke="#010101" stroke-miterlimit="10" d="M112.395,33.25"/>
	</g>
	<g>
		<path fill="none" stroke="#010101" stroke-miterlimit="10" d="M113.476,21.25"/>
	</g>
	<g>
		<path fill="#FFFFFF" d="M109.195,43.942l-1.385-2.322l-89.747-0.202l-0.128-3.456l21.74-0.023
			c22.801-0.291,25.772-0.804,30.695-1.655c0.911-0.158,1.886-0.326,3.063-0.506c0.072-0.013,8.261-1.425,16.343-2.502
			c9.211-1.404,19.465-3.252,20.309-3.907c-0.029,0.022-0.112,0.123-0.112,0.279l0.999-0.036l0.107,1.494
			c15.324,0.004,18.688,0.215,19.454,0.579c2.601,0.105,15.692,0.624,21.753,0.624c1.386,0,2.313-0.027,2.758-0.08
			c0.03-0.003,1.774-0.183,5.162-1.775l0.713-0.335v11.45l-0.103,0.134c-0.041,0.054-1.036,1.329-3.371,1.997l-0.138,0.019
			l-19.457-0.023c-0.038-0.012-4.267-1.334-7.888-1.028c-0.097,0-3.646-0.138-7.758-0.138c-9.498,0-11.953,0.7-12.571,1.117
			L109.195,43.942z M138.075,42.719h19.16c1.561-0.46,2.405-1.22,2.683-1.509v-9.525c-3.107,1.379-4.701,1.533-4.772,1.539
			c-0.475,0.057-1.415,0.085-2.86,0.085c-6.733,0-22.093-0.637-22.247-0.644l-3.939-0.164l0.946-0.203
			c-4.088-0.137-11.4-0.192-16.433-0.192h-0.466l-0.12-1.688c-1.715,0.664-6.54,1.78-20.109,3.848
			c-8.073,1.076-16.242,2.485-16.323,2.499c-1.181,0.181-2.149,0.348-3.055,0.504c-4.971,0.859-7.972,1.377-30.858,1.669
			L18.973,38.96l0.054,1.459l89.351,0.201l1.166,1.954c1.703-0.694,5.953-1.045,12.66-1.045c4.133,0,7.7,0.139,7.735,0.141
			c0.341-0.032,0.749-0.047,1.158-0.047C134.324,41.623,137.534,42.554,138.075,42.719z"/>
	</g>
	<g>
		<path fill="#FFFFFF" d="M17.972,38.95l-0.021-0.555c-0.034-0.929-0.063-1.858-0.085-2.788l-0.011-0.46l0.458-0.049
			c4.513-0.485,27.513-3.14,37.101-7.72c5.796-2.77,16.594-5.588,26.121-8.074c7.086-1.85,14.414-3.762,15.282-4.688l0.098-0.081
			c0.113-0.071,2.787-1.742,5.625-2.306c4.676-0.357,17.046-1.996,18.825-5.341l0.515-0.967l4.735,12.312l-0.338,0.221
			c-0.153,0.1-3.797,2.456-7.529,2.6c0.003,0.007-12.377,2.65-15.584,3.347l-0.172,0.037l-1.693-0.847
			c-1.725,0.275-17.054,2.749-25.116,4.861c-4.841,1.269-12.927,2.903-19.425,4.216c-5.037,1.018-9.387,1.897-10.423,2.245
			L17.972,38.95z M18.877,36.042c0.016,0.587,0.034,1.174,0.054,1.761l27.174-3.86c1.007-0.346,5.176-1.188,10.454-2.255
			c6.485-1.311,14.557-2.942,19.37-4.204c8.556-2.242,25.205-4.88,25.372-4.906l0.159-0.025l1.665,0.833
			c3.466-0.752,15.5-3.321,15.5-3.321c2.901-0.118,5.792-1.668,6.764-2.239l-3.725-9.683c-3.754,3.879-18.33,5.025-18.988,5.075
			c-2.411,0.483-4.825,1.917-5.183,2.135c-1.139,1.078-6.475,2.509-15.705,4.918c-9.015,2.353-20.233,5.281-25.943,8.009
			C46.401,32.792,24.337,35.441,18.877,36.042z"/>
	</g>
	<g>
		
			<rect x="95.178" y="19.49" transform="matrix(0.5487 0.836 -0.836 0.5487 62.0878 -75.0277)" fill="#FFFFFF" width="10.711" height="1"/>
	</g>
	<g>
		
			<rect x="109.896" y="32.128" transform="matrix(0.9942 0.1074 -0.1074 0.9942 4.7185 -11.6401)" fill="#FFFFFF" width="1" height="11.693"/>
	</g>
	<g>
		<path fill-rule="evenodd" clip-rule="evenodd" fill="none" d="M17.57,35.776c0,0,57.517-7.323,78.507-10.115
			c0,0,25.585-1.09,30.825,0c0,0-0.036,13.272-0.481,13.004S17.089,39.147,17.089,39.147L17.57,35.776z"/>
	</g>
	<rect x="0.693" y="151.646" fill="#FFFFFF" width="17.243" height="0.663"/>
</g>
<g id="Layer_2">
	<g>
		<path fill="#FFFFFF" d="M18.531,45.102H0.385V29.949l4.65,0.034c0.036,0.014,3.674,1.411,8.438,1.411h5.152v3.814l0.013-0.001
			l0.073,0.546c-0.014,0.601-0.026,1.202-0.037,1.801l-0.009,0.111c-0.014,0.2-0.01,0.323,0,0.444
			c-0.01,1.037-0.005,2.023,0.026,3.01l-0.041,1.014c-0.035,0.832-0.07,1.661-0.102,2.486L18.531,45.102z M1.385,44.102h16.183
			c0.026-0.668,0.054-1.338,0.083-2.01l0.041-0.976c-0.03-0.896-0.039-1.88-0.025-2.97c-0.012-0.119-0.017-0.292-0.006-0.472
			l0.009-0.111c0.011-0.459,0.02-0.905,0.03-1.347l-0.075-0.467v-3.354h-4.152c-4.597,0-8.099-1.218-8.712-1.445H1.385V44.102z"/>
	</g>
	<g>
	</g>
	<g>
	</g>
	<g>
	</g>
	<g>
	</g>
	<g>
	</g>
	<g>
	</g>
</g>
</svg>
