<?xml version="1.0" standalone="no"?>
<!DOCTYPE svg PUBLIC "-//W3C//DTD SVG 20010904//EN"
 "http://www.w3.org/TR/2001/REC-SVG-20010904/DTD/svg10.dtd">
<svg version="1.0" xmlns="http://www.w3.org/2000/svg"
 width="16.000000pt" height="16.000000pt" viewBox="0 0 16.000000 16.000000"
 preserveAspectRatio="xMidYMid meet">
<metadata>
Created by potrace 1.11, written by Peter Selinger 2001-2013
</metadata>
<g transform="translate(0.000000,16.000000) scale(0.003125,-0.003125)"
fill="#000000" stroke="none">
<path d="M4507 4776 c-73 -27 -133 -88 -165 -171 -6 -16 -27 -95 -46 -175 -58
-245 -136 -449 -261 -686 -83 -158 -646 -1142 -903 -1581 -337 -573 -582 -964
-674 -1076 -52 -62 -85 -64 -137 -9 -76 81 -583 1146 -1353 2842 -136 302
-247 532 -275 573 -106 157 -245 214 -369 152 -79 -40 -161 -110 -194 -167
-25 -45 -30 -63 -30 -124 0 -44 7 -92 19 -126 11 -31 341 -692 734 -1469 393
-778 824 -1632 957 -1899 221 -442 247 -489 296 -536 60 -59 127 -89 232 -104
136 -20 257 -9 339 31 108 52 221 200 327 424 114 243 272 549 423 820 148
264 256 454 948 1660 380 662 495 880 548 1040 63 191 69 294 25 397 -59 139
-294 236 -441 184z"/>
</g>
</svg>
