<?xml version="1.0" encoding="utf-8"?>
<!-- Generator: Adobe Illustrator 16.0.0, SVG Export Plug-In . SVG Version: 6.00 Build 0)  -->
<!DOCTYPE svg PUBLIC "-//W3C//DTD SVG 1.1//EN" "http://www.w3.org/Graphics/SVG/1.1/DTD/svg11.dtd">
<svg version="1.1" id="Layer_1" xmlns="http://www.w3.org/2000/svg" xmlns:xlink="http://www.w3.org/1999/xlink" x="0px" y="0px"
	 width="278.25px" height="94.626px" viewBox="0 0 278.25 94.626" enable-background="new 0 0 278.25 94.626" xml:space="preserve">
<g>
	<path fill="#FFFFFF" d="M37.962,1.904h4.688l14.283,33.295L71.449,1.904h4.688L57.386,45h-0.938L37.962,1.904z"/>
	<path fill="#FFFFFF" d="M83.402,1.904h24.697v4.219H87.708v13.506h20.215v4.219H87.708v16.934h20.215V45H83.402V1.904z"/>
	<path fill="#FFFFFF" d="M155.677,9.902l-3.398,2.607c-1.875-2.441-4.126-4.292-6.753-5.552c-2.627-1.26-5.513-1.89-8.657-1.89
		c-3.438,0-6.621,0.825-9.551,2.476c-2.93,1.651-5.2,3.867-6.812,6.65s-2.417,5.914-2.417,9.39c0,5.254,1.802,9.639,5.405,13.154
		s8.149,5.273,13.638,5.273c6.035,0,11.084-2.363,15.146-7.09l3.398,2.578c-2.149,2.735-4.83,4.849-8.042,6.343
		c-3.213,1.494-6.802,2.241-10.767,2.241c-7.54,0-13.487-2.509-17.842-7.529c-3.652-4.238-5.479-9.355-5.479-15.352
		c0-6.309,2.212-11.616,6.636-15.923s9.965-6.46,16.626-6.46c4.023,0,7.656,0.796,10.898,2.388
		C150.95,4.8,153.607,7.031,155.677,9.902z"/>
	<path fill="#FFFFFF" d="M160.042,6.123V1.904h23.613v4.219h-9.609V45h-4.395V6.123H160.042z"/>
	<path fill="#FFFFFF" d="M210.388,0.82c6.527,0,11.99,2.178,16.389,6.533c4.396,4.355,6.596,9.717,6.596,16.084
		c0,6.309-2.193,11.66-6.582,16.055c-4.387,4.395-9.736,6.592-16.051,6.592c-6.391,0-11.783-2.187-16.182-6.563
		c-4.396-4.375-6.596-9.668-6.596-15.879c0-4.141,1.002-7.979,3.005-11.514c2.003-3.535,4.733-6.303,8.194-8.306
		C202.621,1.821,206.363,0.82,210.388,0.82z M210.58,5.01c-3.189,0-6.211,0.831-9.068,2.493c-2.855,1.662-5.086,3.899-6.689,6.714
		c-1.604,2.815-2.406,5.952-2.406,9.412c0,5.122,1.775,9.446,5.326,12.975s7.83,5.292,12.838,5.292c3.346,0,6.441-0.811,9.287-2.434
		c2.846-1.622,5.066-3.84,6.66-6.655c1.596-2.815,2.393-5.942,2.393-9.383c0-3.42-0.797-6.514-2.393-9.28
		c-1.594-2.766-3.838-4.979-6.734-6.641C216.898,5.841,213.828,5.01,210.58,5.01z"/>
	<path fill="#FFFFFF" d="M242.25,1.904h8.584c4.785,0,8.027,0.196,9.727,0.587c2.559,0.587,4.639,1.843,6.24,3.769
		s2.402,4.298,2.402,7.114c0,2.347-0.551,4.41-1.654,6.189c-1.104,1.78-2.682,3.124-4.732,4.033
		c-2.051,0.91-4.883,1.375-8.496,1.394L269.818,45h-5.328l-15.498-20.01h-2.436V45h-4.307V1.904z M246.556,6.123v14.648l7.424,0.059
		c2.877,0,5.004-0.273,6.383-0.82c1.379-0.546,2.455-1.421,3.229-2.622c0.771-1.201,1.158-2.544,1.158-4.029
		c0-1.445-0.391-2.758-1.174-3.94c-0.781-1.182-1.809-2.026-3.08-2.534c-1.271-0.508-3.385-0.762-6.338-0.762H246.556z"/>
</g>
<g>
	<path fill="#FFFFFF" d="M9.307,52.98H8.564c-0.169-0.836-0.361-1.446-0.576-1.832c-0.215-0.385-0.542-0.688-0.981-0.906
		s-0.933-0.328-1.479-0.328c-0.775,0-1.392,0.215-1.851,0.646c-0.459,0.43-0.688,0.951-0.688,1.564c0,0.541,0.188,1.014,0.566,1.417
		c0.371,0.404,1.278,0.915,2.721,1.531c1.443,0.617,2.424,1.254,2.945,1.913c0.513,0.665,0.77,1.412,0.77,2.24
		c0,0.743-0.194,1.434-0.581,2.073c-0.387,0.639-0.97,1.149-1.748,1.53S6.045,63.4,5.146,63.4c-0.612,0-1.226-0.059-1.841-0.176
		s-1.353-0.319-2.212-0.605c0.098-0.918,0.146-2.135,0.146-3.652h0.752c0.214,0.977,0.437,1.66,0.668,2.051
		c0.23,0.391,0.58,0.711,1.048,0.962c0.468,0.25,0.981,0.376,1.541,0.376c0.767,0,1.44-0.215,2.019-0.645
		c0.578-0.43,0.868-1.033,0.868-1.808c0-0.632-0.208-1.192-0.625-1.681c-0.423-0.482-1.339-1.028-2.749-1.637
		c-1.41-0.609-2.352-1.193-2.827-1.753c-0.475-0.553-0.713-1.213-0.713-1.981c0-0.67,0.192-1.31,0.576-1.917
		c0.384-0.608,0.949-1.089,1.694-1.444c0.746-0.354,1.519-0.532,2.319-0.532c0.963,0,2.129,0.231,3.496,0.693
		c-0.033,0.951-0.049,1.523-0.049,1.719C9.258,51.766,9.274,52.303,9.307,52.98z"/>
	<path fill="#FFFFFF" d="M11.309,49.826V49.25c1.211,0.072,2.256,0.107,3.135,0.107c0.918,0,1.976-0.036,3.174-0.107v0.576
		c-0.202,0.045-0.355,0.078-0.459,0.098c-0.918,0.143-1.436,0.267-1.553,0.371s-0.182,0.322-0.195,0.654
		c-0.039,0.885-0.059,2.552-0.059,5c0,1.634,0.044,2.744,0.132,3.33s0.303,1.087,0.645,1.504s0.812,0.737,1.411,0.962
		s1.237,0.337,1.914,0.337c1.022,0,1.851-0.211,2.485-0.635s1.055-0.988,1.26-1.694s0.308-2.088,0.308-4.146
		c0-2.721-0.023-4.326-0.068-4.814c-0.02-0.215-0.082-0.366-0.186-0.454s-0.592-0.226-1.465-0.415
		c-0.091-0.02-0.231-0.052-0.42-0.098V49.25c1.276,0.072,2.246,0.107,2.91,0.107c0.749,0,1.602-0.036,2.559-0.107v0.576
		c-0.182,0.052-0.317,0.088-0.408,0.107c-0.862,0.176-1.351,0.313-1.468,0.41s-0.188,0.267-0.214,0.508
		c-0.07,0.514-0.113,2.031-0.127,4.551c-0.006,1.947-0.042,3.184-0.107,3.711c-0.084,0.729-0.238,1.317-0.459,1.763
		s-0.562,0.869-1.021,1.27s-0.985,0.695-1.577,0.884c-0.781,0.248-1.598,0.371-2.451,0.371c-0.951,0-1.798-0.117-2.544-0.352
		s-1.323-0.552-1.733-0.952s-0.716-0.873-0.918-1.416s-0.303-1.333-0.303-2.368l0.039-4.434c0-1.647-0.006-2.575-0.02-2.783
		c-0.026-0.319-0.075-0.534-0.146-0.645c-0.052-0.091-0.13-0.16-0.234-0.205c-0.078-0.039-0.531-0.14-1.357-0.303
		C11.683,49.924,11.523,49.885,11.309,49.826z"/>
	<path fill="#FFFFFF" d="M27.451,49.826V49.25c1.725,0.072,3.109,0.107,4.15,0.107c0.599,0,1.159-0.006,1.68-0.02
		c0.69-0.026,1.168-0.039,1.436-0.039c1.27,0,2.227,0.299,2.871,0.898c0.638,0.606,0.957,1.423,0.957,2.452
		c0,0.69-0.145,1.301-0.435,1.832c-0.29,0.53-0.708,0.978-1.255,1.343c-0.397,0.261-0.964,0.492-1.7,0.693l3.252,4.238
		c0.404,0.527,0.658,0.836,0.762,0.927c0.163,0.137,0.375,0.254,0.635,0.352c0.365,0.143,0.98,0.309,1.846,0.498v0.576
		C40.622,63.036,39.873,63,39.404,63c-0.541,0-1.094,0.036-1.66,0.107c-0.293-0.488-0.69-1.102-1.191-1.841
		s-0.807-1.177-0.918-1.313c-0.065-0.078-0.127-0.16-0.186-0.244l-2.148-2.949c-0.58-0.013-1.166-0.055-1.758-0.127l0.078,4.922
		c0.013,0.195,0.072,0.342,0.176,0.439c0.156,0.13,0.645,0.27,1.465,0.42c0.117,0.02,0.296,0.059,0.537,0.117v0.576
		C32.621,63.036,31.582,63,30.684,63c-0.963,0-2.041,0.036-3.232,0.107v-0.576l0.42-0.088c0.931-0.176,1.46-0.321,1.587-0.435
		s0.2-0.317,0.22-0.61c0.013-0.189,0.029-1.862,0.049-5.02l-0.039-4.59c-0.006-0.703-0.024-1.107-0.054-1.211
		s-0.093-0.182-0.19-0.234c-0.319-0.169-0.824-0.309-1.514-0.42C27.826,49.904,27.666,49.872,27.451,49.826z M31.543,55.803
		c0.677,0.072,1.201,0.107,1.572,0.107c1.185,0,2.062-0.264,2.632-0.792s0.854-1.262,0.854-2.201c0-0.821-0.252-1.47-0.757-1.947
		c-0.504-0.476-1.239-0.714-2.202-0.714c-0.345,0-1.025,0.039-2.041,0.117L31.543,55.803z"/>
	<path fill="#FFFFFF" d="M46.885,63.4H46.24c-0.846-2.48-1.878-5.277-3.096-8.389c-1.016-2.591-1.595-4.02-1.738-4.287
		c-0.098-0.176-0.215-0.311-0.352-0.405s-0.622-0.259-1.455-0.493V49.25c1.406,0.072,2.331,0.107,2.773,0.107
		c0.631,0,1.556-0.036,2.773-0.107v0.576c-0.117,0.033-0.205,0.055-0.264,0.068c-0.638,0.156-1.014,0.282-1.128,0.376
		s-0.171,0.204-0.171,0.327c0,0.065,0.01,0.137,0.029,0.215c0.117,0.476,0.604,1.886,1.463,4.23l1.854,5.11
		c0.801-2.071,1.502-3.989,2.102-5.754c0.756-2.208,1.16-3.432,1.212-3.673c0.013-0.052,0.02-0.098,0.02-0.137
		c0-0.124-0.049-0.225-0.146-0.303c-0.143-0.111-0.619-0.273-1.426-0.488V49.25c0.039,0,0.273,0.01,0.703,0.029
		c1.002,0.052,1.647,0.078,1.934,0.078c0.553,0,1.214-0.036,1.982-0.107v0.547c-0.677,0.176-1.107,0.331-1.289,0.464
		s-0.371,0.425-0.566,0.874c-0.397,0.898-1.396,3.548-2.998,7.949L46.885,63.4z"/>
	<path fill="#FFFFFF" d="M57.871,55.363h2.363c0.912,0,1.449-0.024,1.611-0.073s0.294-0.148,0.396-0.298s0.226-0.583,0.376-1.299
		c0.02-0.072,0.049-0.182,0.088-0.332h0.645c-0.072,1.074-0.107,1.901-0.107,2.48c0,0.599,0.036,1.419,0.107,2.461h-0.645
		c-0.189-0.944-0.306-1.471-0.352-1.582c-0.065-0.156-0.179-0.269-0.342-0.337s-0.648-0.103-1.455-0.103h-2.676l0.049,5.742h4.092
		l0.361-0.01c0.56,0,0.912-0.023,1.055-0.068c0.248-0.084,0.465-0.226,0.654-0.425s0.537-0.76,1.045-1.685
		c0.052-0.091,0.13-0.225,0.234-0.4h0.674c-0.078,0.208-0.482,1.432-1.211,3.672C62.464,63.036,60.299,63,58.34,63
		c-1.367,0-2.877,0.036-4.531,0.107v-0.576l1.582-0.342c0.254-0.072,0.41-0.143,0.469-0.215c0.098-0.124,0.146-0.381,0.146-0.771
		v-0.176l0.049-2.295c0.006-0.443,0.01-1.312,0.01-2.607c0-1.881-0.006-3.26-0.02-4.136S56,50.617,55.947,50.5
		c-0.039-0.078-0.099-0.142-0.181-0.19s-0.382-0.132-0.903-0.249l-1.055-0.234V49.25c1.224,0.072,2.686,0.107,4.385,0.107
		c0.931,0,3.145-0.036,6.641-0.107c0.013,1.126,0.091,2.24,0.234,3.34h-0.684c-0.26-0.885-0.472-1.475-0.635-1.768
		c-0.111-0.202-0.248-0.335-0.41-0.4c-0.215-0.084-0.69-0.127-1.426-0.127h-3.945L57.9,53.439L57.871,55.363z"/>
	<path fill="#FFFFFF" d="M71.133,63.107v-0.576c0.228-0.045,0.397-0.078,0.508-0.098c0.807-0.13,1.295-0.26,1.465-0.391
		c0.098-0.078,0.172-0.275,0.225-0.591s0.078-1.232,0.078-2.749l-0.01-1.309c-0.547-0.873-1.452-2.246-2.715-4.121l-1.777-2.578
		c-0.13-0.15-0.29-0.277-0.479-0.381c-0.293-0.163-0.775-0.326-1.445-0.488V49.25c1.029,0.072,1.943,0.107,2.744,0.107
		c0.781,0,1.738-0.036,2.871-0.107v0.576c-0.749,0.189-1.18,0.326-1.294,0.41s-0.171,0.172-0.171,0.264
		c0,0.084,0.055,0.221,0.166,0.41c0.586,1.015,1.701,2.782,3.342,5.3c0.82-1.301,1.892-3.077,3.213-5.327
		c0.136-0.229,0.205-0.385,0.205-0.47c0-0.091-0.036-0.16-0.107-0.206c-0.208-0.13-0.664-0.257-1.367-0.381V49.25
		c1.191,0.072,2.057,0.107,2.597,0.107c0.65,0,1.451-0.036,2.4-0.107v0.576c-0.801,0.156-1.367,0.34-1.699,0.552
		s-0.726,0.656-1.182,1.333c-0.99,1.471-2.165,3.294-3.525,5.469c-0.006,0.326-0.01,0.518-0.01,0.576
		c0,2.266,0.013,3.514,0.039,3.745s0.098,0.399,0.215,0.503c0.182,0.143,0.729,0.296,1.641,0.459
		c0.078,0.013,0.192,0.036,0.342,0.068v0.576C76.191,63.036,75.211,63,74.463,63C73.864,63,72.754,63.036,71.133,63.107z"/>
	<path fill="#FFFFFF" d="M88.604,49.25v0.576c-0.228,0.052-0.397,0.088-0.508,0.107c-0.866,0.15-1.367,0.292-1.504,0.425
		s-0.205,0.431-0.205,0.894v0.342l-0.049,3.926l0.029,5.703c0,0.456,0.067,0.746,0.2,0.869s0.591,0.231,1.372,0.322
		c0.15,0.02,0.368,0.059,0.654,0.117v0.576C87.545,63.036,86.537,63,85.566,63c-1.002,0-2.103,0.036-3.301,0.107v-0.576
		c0.189-0.052,0.332-0.084,0.43-0.098c0.924-0.15,1.454-0.288,1.587-0.415s0.2-0.448,0.2-0.962l-0.02-0.488l0.029-3.584
		c0-3.685-0.01-5.723-0.029-6.113c-0.013-0.215-0.083-0.381-0.209-0.498s-0.618-0.257-1.473-0.42
		c-0.117-0.026-0.289-0.068-0.515-0.127V49.25c1.415,0.072,2.52,0.107,3.315,0.107C86.468,49.357,87.476,49.322,88.604,49.25z"/>
	<path fill="#FFFFFF" d="M89.063,49.826V49.25c0.825,0.072,1.474,0.107,1.948,0.107c0.383,0,1.068-0.036,2.056-0.107l2.773,3.467
		c0.254,0.306,2.213,2.679,5.879,7.119c0.006-0.912,0.01-1.572,0.01-1.982c0-0.97-0.029-2.744-0.088-5.322
		c-0.026-1.205-0.058-1.859-0.094-1.963c-0.035-0.104-0.11-0.199-0.225-0.283c-0.113-0.084-0.567-0.202-1.361-0.352
		c-0.104-0.02-0.258-0.055-0.459-0.107V49.25c1.158,0.072,2.08,0.107,2.764,0.107c0.664,0,1.582-0.036,2.754-0.107v0.576
		c-0.176,0.045-0.307,0.075-0.391,0.088c-0.873,0.182-1.357,0.303-1.455,0.361c-0.072,0.039-0.131,0.098-0.176,0.176
		c-0.065,0.104-0.111,0.299-0.137,0.586c-0.007,0.124-0.021,1.011-0.045,2.661c-0.022,1.65-0.033,3.247-0.033,4.79
		c0,1.823,0.032,3.363,0.098,4.619l-0.635,0.293l-4.073-5.06l-5.342-6.427l0.049,5.773c0.033,2.526,0.068,3.875,0.107,4.044
		c0.026,0.117,0.084,0.218,0.176,0.303c0.143,0.13,0.628,0.267,1.455,0.41c0.098,0.013,0.244,0.042,0.439,0.088v0.576
		C94.063,63.036,93.223,63,92.539,63c-0.573,0-1.572,0.036-2.998,0.107v-0.576c0.228-0.052,0.4-0.091,0.518-0.117
		c0.781-0.137,1.234-0.264,1.357-0.381c0.072-0.059,0.124-0.16,0.156-0.303c0.065-0.299,0.111-1.432,0.137-3.398
		c0.033-2.787,0.049-4.434,0.049-4.941c0-1.634-0.023-2.542-0.068-2.725c-0.026-0.13-0.111-0.239-0.254-0.327
		s-0.758-0.223-1.846-0.405C89.473,49.914,89.297,49.878,89.063,49.826z"/>
	<path fill="#FFFFFF" d="M121.504,55.969v0.537l-1.494,0.361c-0.156,0.039-0.271,0.096-0.342,0.171s-0.12,0.184-0.146,0.327
		c-0.052,0.293-0.078,1.025-0.078,2.197c0,0.703,0.026,1.657,0.078,2.861c-0.286,0.045-0.901,0.176-1.846,0.391
		c-1.237,0.273-2.019,0.43-2.344,0.469c-0.632,0.078-1.302,0.117-2.012,0.117c-2.292,0-4.053-0.607-5.283-1.821
		s-1.846-2.87-1.846-4.966c0-2.272,0.721-4.116,2.163-5.532s3.361-2.124,5.757-2.124c0.599,0,1.172,0.036,1.719,0.107
		c0.124,0.013,1.237,0.211,3.34,0.596c-0.007,0.358-0.01,0.645-0.01,0.859c0,0.873,0.042,1.859,0.127,2.959h-0.732
		c-0.3-1.113-0.581-1.846-0.845-2.197s-0.691-0.638-1.284-0.859c-0.781-0.299-1.628-0.449-2.539-0.449
		c-2.019,0-3.535,0.762-4.551,2.285c-0.71,1.074-1.064,2.396-1.064,3.965c0,2.005,0.562,3.525,1.685,4.561s2.541,1.553,4.253,1.553
		c1.081,0,2.217-0.228,3.408-0.684c0.026-0.703,0.039-1.735,0.039-3.096c0-0.736-0.02-1.168-0.059-1.299s-0.117-0.231-0.234-0.303
		c-0.149-0.091-0.593-0.211-1.328-0.361l-0.381-0.088v-0.537l3.34,0.068C119.73,56.037,120.567,56.014,121.504,55.969z"/>
	<path fill="#FFFFFF" d="M136.192,52.98h-0.742c-0.169-0.836-0.361-1.446-0.576-1.832c-0.215-0.385-0.542-0.688-0.981-0.906
		s-0.933-0.328-1.479-0.328c-0.774,0-1.392,0.215-1.851,0.646c-0.459,0.43-0.688,0.951-0.688,1.564c0,0.541,0.188,1.014,0.566,1.417
		c0.37,0.404,1.277,0.915,2.721,1.531s2.425,1.254,2.944,1.913c0.514,0.665,0.771,1.412,0.771,2.24c0,0.743-0.193,1.434-0.581,2.073
		c-0.388,0.639-0.97,1.149-1.748,1.53s-1.616,0.572-2.515,0.572c-0.612,0-1.226-0.059-1.841-0.176s-1.353-0.319-2.212-0.605
		c0.098-0.918,0.146-2.135,0.146-3.652h0.752c0.215,0.977,0.438,1.66,0.668,2.051s0.58,0.711,1.048,0.962s0.981,0.376,1.541,0.376
		c0.767,0,1.439-0.215,2.018-0.645c0.579-0.43,0.868-1.033,0.868-1.808c0-0.632-0.208-1.192-0.625-1.681
		c-0.423-0.482-1.34-1.028-2.749-1.637c-1.409-0.609-2.352-1.193-2.827-1.753c-0.476-0.553-0.713-1.213-0.713-1.981
		c0-0.67,0.192-1.31,0.576-1.917c0.384-0.608,0.949-1.089,1.694-1.444c0.745-0.354,1.519-0.532,2.319-0.532
		c0.964,0,2.129,0.231,3.496,0.693c-0.032,0.951-0.049,1.523-0.049,1.719C136.143,51.766,136.16,52.303,136.192,52.98z"/>
	<path fill="#FFFFFF" d="M142.374,55.363h2.363c0.911,0,1.448-0.024,1.611-0.073s0.295-0.148,0.396-0.298s0.227-0.583,0.376-1.299
		c0.02-0.072,0.049-0.182,0.088-0.332h0.645c-0.071,1.074-0.107,1.901-0.107,2.48c0,0.599,0.036,1.419,0.107,2.461h-0.645
		c-0.188-0.944-0.306-1.471-0.352-1.582c-0.065-0.156-0.179-0.269-0.342-0.337s-0.647-0.103-1.455-0.103h-2.676l0.049,5.742h4.092
		l0.361-0.01c0.56,0,0.911-0.023,1.055-0.068c0.247-0.084,0.466-0.226,0.654-0.425s0.537-0.76,1.045-1.685
		c0.052-0.091,0.13-0.225,0.234-0.4h0.674c-0.078,0.208-0.481,1.432-1.211,3.672c-2.37-0.072-4.534-0.107-6.494-0.107
		c-1.367,0-2.878,0.036-4.531,0.107v-0.576l1.582-0.342c0.254-0.072,0.41-0.143,0.469-0.215c0.098-0.124,0.146-0.381,0.146-0.771
		v-0.176l0.049-2.295c0.007-0.443,0.01-1.312,0.01-2.607c0-1.881-0.007-3.26-0.02-4.136s-0.046-1.372-0.098-1.489
		c-0.039-0.078-0.1-0.142-0.181-0.19s-0.383-0.132-0.903-0.249l-1.055-0.234V49.25c1.224,0.072,2.686,0.107,4.385,0.107
		c0.931,0,3.145-0.036,6.641-0.107c0.013,1.126,0.091,2.24,0.234,3.34h-0.684c-0.261-0.885-0.472-1.475-0.635-1.768
		c-0.11-0.202-0.247-0.335-0.41-0.4c-0.215-0.084-0.69-0.127-1.426-0.127h-3.945l-0.068,3.145L142.374,55.363z"/>
	<path fill="#FFFFFF" d="M151.641,49.826V49.25c1.726,0.072,3.108,0.107,4.15,0.107c0.599,0,1.159-0.006,1.68-0.02
		c0.69-0.026,1.169-0.039,1.436-0.039c1.27,0,2.227,0.299,2.871,0.898c0.638,0.606,0.957,1.423,0.957,2.452
		c0,0.69-0.145,1.301-0.435,1.832c-0.29,0.53-0.709,0.978-1.256,1.343c-0.397,0.261-0.964,0.492-1.7,0.693l3.253,4.238
		c0.404,0.527,0.658,0.836,0.762,0.927c0.163,0.137,0.375,0.254,0.636,0.352c0.364,0.143,0.979,0.309,1.846,0.498v0.576
		c-1.028-0.072-1.777-0.107-2.246-0.107c-0.54,0-1.094,0.036-1.66,0.107c-0.293-0.488-0.69-1.102-1.191-1.841
		s-0.808-1.177-0.918-1.313c-0.065-0.078-0.127-0.16-0.186-0.244l-2.148-2.949c-0.579-0.013-1.165-0.055-1.758-0.127l0.078,4.922
		c0.013,0.195,0.071,0.342,0.176,0.439c0.156,0.13,0.645,0.27,1.465,0.42c0.117,0.02,0.296,0.059,0.537,0.117v0.576
		C156.81,63.036,155.772,63,154.874,63c-0.964,0-2.041,0.036-3.232,0.107v-0.576l0.42-0.088c0.931-0.176,1.46-0.321,1.587-0.435
		s0.2-0.317,0.22-0.61c0.013-0.189,0.029-1.862,0.049-5.02l-0.039-4.59c-0.007-0.703-0.024-1.107-0.054-1.211
		s-0.093-0.182-0.19-0.234c-0.319-0.169-0.823-0.309-1.514-0.42C152.015,49.904,151.856,49.872,151.641,49.826z M155.733,55.803
		c0.677,0.072,1.201,0.107,1.572,0.107c1.185,0,2.063-0.264,2.632-0.792s0.854-1.262,0.854-2.201c0-0.821-0.252-1.47-0.757-1.947
		c-0.505-0.476-1.238-0.714-2.202-0.714c-0.345,0-1.025,0.039-2.041,0.117L155.733,55.803z"/>
	<path fill="#FFFFFF" d="M171.075,63.4h-0.645c-0.847-2.48-1.878-5.277-3.096-8.389c-1.016-2.591-1.595-4.02-1.738-4.287
		c-0.098-0.176-0.215-0.311-0.352-0.405s-0.622-0.259-1.455-0.493V49.25c1.406,0.072,2.331,0.107,2.773,0.107
		c0.632,0,1.556-0.036,2.773-0.107v0.576c-0.117,0.033-0.205,0.055-0.264,0.068c-0.638,0.156-1.014,0.282-1.128,0.376
		s-0.171,0.204-0.171,0.327c0,0.065,0.01,0.137,0.029,0.215c0.117,0.476,0.604,1.886,1.463,4.23l1.854,5.11
		c0.802-2.071,1.502-3.989,2.102-5.754c0.757-2.208,1.161-3.432,1.213-3.673c0.013-0.052,0.02-0.098,0.02-0.137
		c0-0.124-0.049-0.225-0.146-0.303c-0.144-0.111-0.618-0.273-1.426-0.488V49.25c0.039,0,0.273,0.01,0.703,0.029
		c1.003,0.052,1.647,0.078,1.934,0.078c0.554,0,1.214-0.036,1.982-0.107v0.547c-0.677,0.176-1.106,0.331-1.289,0.464
		s-0.371,0.425-0.566,0.874c-0.397,0.898-1.396,3.548-2.998,7.949L171.075,63.4z"/>
	<path fill="#FFFFFF" d="M184.454,49.25v0.576c-0.228,0.052-0.397,0.088-0.508,0.107c-0.866,0.15-1.367,0.292-1.504,0.425
		s-0.205,0.431-0.205,0.894v0.342l-0.049,3.926l0.029,5.703c0,0.456,0.066,0.746,0.2,0.869s0.591,0.231,1.372,0.322
		c0.149,0.02,0.368,0.059,0.654,0.117v0.576c-1.048-0.072-2.058-0.107-3.027-0.107c-1.003,0-2.103,0.036-3.301,0.107v-0.576
		c0.188-0.052,0.332-0.084,0.43-0.098c0.925-0.15,1.453-0.288,1.587-0.415s0.2-0.448,0.2-0.962l-0.02-0.488l0.029-3.584
		c0-3.685-0.01-5.723-0.029-6.113c-0.013-0.215-0.083-0.381-0.209-0.498s-0.617-0.257-1.473-0.42
		c-0.117-0.026-0.289-0.068-0.516-0.127V49.25c1.415,0.072,2.52,0.107,3.315,0.107C182.318,49.357,183.326,49.322,184.454,49.25z"/>
	<path fill="#FFFFFF" d="M198.243,60.734l0.41,0.742c-1.047,0.658-2.051,1.143-3.013,1.455s-1.957,0.469-2.984,0.469
		c-1.307,0-2.492-0.298-3.559-0.894s-1.874-1.439-2.423-2.529c-0.55-1.09-0.824-2.3-0.824-3.628c0-2.168,0.707-3.942,2.121-5.322
		c1.413-1.38,3.284-2.07,5.611-2.07c1.43,0,3.022,0.293,4.777,0.879c-0.013,0.573-0.02,1.002-0.02,1.289
		c0,0.833,0.049,1.709,0.146,2.627h-0.82c-0.241-1.139-0.498-1.924-0.771-2.354c-0.273-0.43-0.716-0.773-1.327-1.03
		s-1.365-0.386-2.263-0.386c-1.887,0-3.308,0.67-4.264,2.012c-0.741,1.048-1.112,2.363-1.112,3.945c0,1.888,0.521,3.377,1.565,4.468
		s2.412,1.636,4.104,1.636c0.728,0,1.437-0.094,2.126-0.283S197.254,61.229,198.243,60.734z"/>
	<path fill="#FFFFFF" d="M203.75,55.363h2.363c0.911,0,1.448-0.024,1.611-0.073s0.295-0.148,0.396-0.298s0.227-0.583,0.376-1.299
		c0.02-0.072,0.049-0.182,0.088-0.332h0.645c-0.071,1.074-0.107,1.901-0.107,2.48c0,0.599,0.036,1.419,0.107,2.461h-0.645
		c-0.188-0.944-0.306-1.471-0.352-1.582c-0.065-0.156-0.179-0.269-0.342-0.337s-0.647-0.103-1.455-0.103h-2.676l0.049,5.742h4.092
		l0.361-0.01c0.56,0,0.911-0.023,1.055-0.068c0.247-0.084,0.466-0.226,0.654-0.425s0.537-0.76,1.045-1.685
		c0.052-0.091,0.13-0.225,0.234-0.4h0.674c-0.078,0.208-0.481,1.432-1.211,3.672c-2.37-0.072-4.534-0.107-6.494-0.107
		c-1.367,0-2.878,0.036-4.531,0.107v-0.576l1.582-0.342c0.254-0.072,0.41-0.143,0.469-0.215c0.098-0.124,0.146-0.381,0.146-0.771
		v-0.176l0.049-2.295c0.007-0.443,0.01-1.312,0.01-2.607c0-1.881-0.007-3.26-0.02-4.136s-0.046-1.372-0.098-1.489
		c-0.039-0.078-0.1-0.142-0.181-0.19s-0.383-0.132-0.903-0.249l-1.055-0.234V49.25c1.224,0.072,2.686,0.107,4.385,0.107
		c0.931,0,3.145-0.036,6.641-0.107c0.013,1.126,0.091,2.24,0.234,3.34h-0.684c-0.261-0.885-0.472-1.475-0.635-1.768
		c-0.11-0.202-0.247-0.335-0.41-0.4c-0.215-0.084-0.69-0.127-1.426-0.127h-3.945l-0.068,3.145L203.75,55.363z"/>
	<path fill="#FFFFFF" d="M221.944,52.98h-0.742c-0.169-0.836-0.361-1.446-0.576-1.832c-0.215-0.385-0.542-0.688-0.981-0.906
		s-0.933-0.328-1.479-0.328c-0.774,0-1.392,0.215-1.851,0.646c-0.459,0.43-0.688,0.951-0.688,1.564c0,0.541,0.188,1.014,0.566,1.417
		c0.37,0.404,1.277,0.915,2.721,1.531s2.425,1.254,2.944,1.913c0.514,0.665,0.771,1.412,0.771,2.24c0,0.743-0.193,1.434-0.581,2.073
		c-0.388,0.639-0.97,1.149-1.748,1.53s-1.616,0.572-2.515,0.572c-0.612,0-1.226-0.059-1.841-0.176s-1.353-0.319-2.212-0.605
		c0.098-0.918,0.146-2.135,0.146-3.652h0.752c0.215,0.977,0.438,1.66,0.668,2.051s0.58,0.711,1.048,0.962s0.981,0.376,1.541,0.376
		c0.767,0,1.439-0.215,2.018-0.645c0.579-0.43,0.868-1.033,0.868-1.808c0-0.632-0.208-1.192-0.625-1.681
		c-0.423-0.482-1.34-1.028-2.749-1.637c-1.409-0.609-2.352-1.193-2.827-1.753c-0.476-0.553-0.713-1.213-0.713-1.981
		c0-0.67,0.192-1.31,0.576-1.917c0.384-0.608,0.949-1.089,1.694-1.444c0.745-0.354,1.519-0.532,2.319-0.532
		c0.964,0,2.129,0.231,3.496,0.693c-0.032,0.951-0.049,1.523-0.049,1.719C221.895,51.766,221.912,52.303,221.944,52.98z"/>
	<path fill="#FFFFFF" d="M224.385,62.902l-0.303-0.371c0.437-0.495,0.82-1.035,1.152-1.621c0.481,0.163,0.861,0.433,1.138,0.811
		s0.415,0.791,0.415,1.24c0,1.256-0.681,2.48-2.041,3.672l-0.42-0.518c0.801-0.814,1.201-1.585,1.201-2.314
		c0-0.287-0.081-0.519-0.244-0.698s-0.345-0.269-0.547-0.269C224.652,62.834,224.535,62.857,224.385,62.902z"/>
	<path fill="#FFFFFF" d="M233.838,49.826V49.25c1.595,0.072,2.676,0.107,3.242,0.107c0.352,0,1.475-0.036,3.369-0.107v0.576
		c-1.172,0.202-1.858,0.335-2.061,0.4c-0.144,0.045-0.247,0.117-0.313,0.215c-0.098,0.137-0.153,0.42-0.166,0.85
		s-0.02,2.838-0.02,7.227c0,0.866,0.01,2.021,0.029,3.467h4.307c0.645,0,1.064-0.039,1.26-0.117s0.397-0.25,0.605-0.518
		s0.599-0.938,1.172-2.012h0.83l-0.781,2.178c-0.137,0.404-0.303,0.934-0.498,1.592C242.122,63.036,239.777,63,237.78,63
		c-1.411,0-2.722,0.036-3.932,0.107v-0.576c0.991-0.182,1.575-0.308,1.75-0.376s0.293-0.161,0.354-0.278s0.093-0.459,0.093-1.025
		l0.049-5.986l-0.029-3.857c0-0.332-0.049-0.541-0.146-0.625c-0.149-0.13-0.632-0.267-1.445-0.41
		C234.33,49.947,234.119,49.898,233.838,49.826z"/>
	<path fill="#FFFFFF" d="M246.954,49.826V49.25c1.595,0.072,2.676,0.107,3.242,0.107c0.352,0,1.475-0.036,3.369-0.107v0.576
		c-1.172,0.202-1.858,0.335-2.061,0.4c-0.144,0.045-0.247,0.117-0.313,0.215c-0.098,0.137-0.153,0.42-0.166,0.85
		s-0.02,2.838-0.02,7.227c0,0.866,0.01,2.021,0.029,3.467h4.307c0.645,0,1.064-0.039,1.26-0.117s0.397-0.25,0.605-0.518
		s0.599-0.938,1.172-2.012h0.83l-0.781,2.178c-0.137,0.404-0.303,0.934-0.498,1.592c-2.693-0.072-5.038-0.107-7.035-0.107
		c-1.411,0-2.722,0.036-3.932,0.107v-0.576c0.991-0.182,1.575-0.308,1.75-0.376s0.293-0.161,0.354-0.278s0.093-0.459,0.093-1.025
		l0.049-5.986l-0.029-3.857c0-0.332-0.049-0.541-0.146-0.625c-0.149-0.13-0.632-0.267-1.445-0.41
		C247.445,49.947,247.234,49.898,246.954,49.826z"/>
	<path fill="#FFFFFF" d="M272.667,60.734l0.41,0.742c-1.047,0.658-2.051,1.143-3.013,1.455s-1.957,0.469-2.984,0.469
		c-1.307,0-2.492-0.298-3.559-0.894s-1.874-1.439-2.423-2.529c-0.55-1.09-0.824-2.3-0.824-3.628c0-2.168,0.707-3.942,2.121-5.322
		c1.413-1.38,3.284-2.07,5.611-2.07c1.43,0,3.022,0.293,4.777,0.879c-0.013,0.573-0.02,1.002-0.02,1.289
		c0,0.833,0.049,1.709,0.146,2.627h-0.82c-0.241-1.139-0.498-1.924-0.771-2.354c-0.273-0.43-0.716-0.773-1.327-1.03
		s-1.365-0.386-2.263-0.386c-1.887,0-3.308,0.67-4.264,2.012c-0.741,1.048-1.112,2.363-1.112,3.945c0,1.888,0.521,3.377,1.565,4.468
		s2.412,1.636,4.104,1.636c0.728,0,1.437-0.094,2.126-0.283S271.678,61.229,272.667,60.734z"/>
	<path fill="#FFFFFF" d="M275.958,61.164c0.3,0,0.555,0.105,0.767,0.316s0.317,0.468,0.317,0.773c0,0.298-0.105,0.554-0.317,0.768
		s-0.467,0.321-0.767,0.321c-0.306,0-0.564-0.107-0.776-0.321s-0.317-0.47-0.317-0.768c0-0.305,0.105-0.563,0.317-0.773
		S275.652,61.164,275.958,61.164z"/>
</g>
<line fill="#FFFFFF" stroke="#FFFFFF" stroke-width="6" stroke-miterlimit="10" x1="24.75" y1="71.99" x2="266.25" y2="71.924"/>
<line fill="#FFFFFF" stroke="#FFFFFF" stroke-width="6" stroke-miterlimit="10" x1="1.25" y1="71.957" x2="9.5" y2="71.957"/>
<line fill="#FFFFFF" stroke="#FFFFFF" stroke-width="6" stroke-miterlimit="10" x1="12.75" y1="71.957" x2="21.001" y2="71.957"/>
<polygon fill="#FFFFFF" stroke="#FFFFFF" stroke-miterlimit="10" points="266.25,69.04 277.001,71.959 266.25,74.875 "/>
<line fill="#FFFFFF" stroke="#FFFFFF" stroke-width="4" stroke-miterlimit="10" x1="22.876" y1="94.626" x2="22.876" y2="74.875"/>
<line fill="#FFFFFF" stroke="#FFFFFF" stroke-width="4" stroke-miterlimit="10" x1="11.125" y1="94.626" x2="11.125" y2="74.875"/>
<g>
</g>
<g>
</g>
<g>
</g>
<g>
</g>
<g>
</g>
<g>
</g>
</svg>
